G04*
G04 #@! TF.GenerationSoftware,Altium Limited,Altium Designer,19.1.2 (11)*
G04*
G04 Layer_Physical_Order=1*
G04 Layer_Color=255*
%FSLAX25Y25*%
%MOIN*%
G70*
G01*
G75*
%ADD16C,0.05000*%
%ADD17R,0.05906X0.05906*%
%ADD18C,0.05906*%
%ADD19C,0.06000*%
%ADD20R,0.06000X0.06000*%
G36*
X198000Y105153D02*
X197538Y104962D01*
X197500Y105000D01*
X104000D01*
X103001Y377646D01*
X103354Y378000D01*
X198000D01*
Y105153D01*
D02*
G37*
%LPC*%
G36*
X188453Y320453D02*
X185000D01*
Y317000D01*
X188453D01*
Y320453D01*
D02*
G37*
G36*
X184000D02*
X180547D01*
Y317000D01*
X184000D01*
Y320453D01*
D02*
G37*
G36*
X174500Y320487D02*
X173468Y320351D01*
X172507Y319953D01*
X171681Y319319D01*
X171047Y318493D01*
X170727Y317719D01*
X168913Y315905D01*
X168439Y316139D01*
X168487Y316500D01*
X168351Y317532D01*
X167953Y318493D01*
X167319Y319319D01*
X166493Y319953D01*
X165532Y320351D01*
X164500Y320487D01*
X163468Y320351D01*
X162507Y319953D01*
X161681Y319319D01*
X161047Y318493D01*
X160649Y317532D01*
X160513Y316500D01*
X160649Y315468D01*
X161047Y314507D01*
X161681Y313681D01*
X162507Y313047D01*
X163468Y312649D01*
X164500Y312513D01*
X164861Y312561D01*
X165095Y312087D01*
X158492Y305485D01*
X158030Y305676D01*
Y314694D01*
X158351Y315468D01*
X158487Y316500D01*
X158351Y317532D01*
X157953Y318493D01*
X157319Y319319D01*
X156493Y319953D01*
X155532Y320351D01*
X154500Y320487D01*
X153468Y320351D01*
X152507Y319953D01*
X151681Y319319D01*
X151047Y318493D01*
X150649Y317532D01*
X150513Y316500D01*
X150649Y315468D01*
X150970Y314694D01*
Y260462D01*
X125468Y234960D01*
X124994Y235194D01*
X125034Y235500D01*
X124897Y236544D01*
X124494Y237517D01*
X123853Y238353D01*
X123017Y238994D01*
X122044Y239397D01*
X121000Y239534D01*
X119956Y239397D01*
X118983Y238994D01*
X118147Y238353D01*
X117506Y237517D01*
X117103Y236544D01*
X116965Y235500D01*
X117103Y234456D01*
X117506Y233483D01*
X118147Y232647D01*
X118983Y232006D01*
X119956Y231603D01*
X121000Y231466D01*
X121306Y231506D01*
X121540Y231032D01*
X119868Y229361D01*
X118983Y228994D01*
X118147Y228353D01*
X117506Y227517D01*
X117103Y226544D01*
X116965Y225500D01*
X117103Y224456D01*
X117506Y223483D01*
X118147Y222647D01*
X118983Y222006D01*
X119956Y221603D01*
X121000Y221465D01*
X122044Y221603D01*
X123017Y222006D01*
X123853Y222647D01*
X124494Y223483D01*
X124861Y224368D01*
X156508Y256015D01*
X156970Y255824D01*
Y196462D01*
X125468Y164960D01*
X124994Y165194D01*
X125034Y165500D01*
X124897Y166544D01*
X124494Y167517D01*
X123853Y168353D01*
X123017Y168994D01*
X122044Y169397D01*
X121000Y169535D01*
X119956Y169397D01*
X118983Y168994D01*
X118147Y168353D01*
X117506Y167517D01*
X117103Y166544D01*
X116965Y165500D01*
X117103Y164456D01*
X117506Y163483D01*
X118147Y162647D01*
X118983Y162006D01*
X119956Y161603D01*
X121000Y161466D01*
X121306Y161506D01*
X121540Y161032D01*
X119868Y159361D01*
X118983Y158994D01*
X118147Y158353D01*
X117506Y157517D01*
X117103Y156544D01*
X116965Y155500D01*
X117103Y154456D01*
X117506Y153483D01*
X118147Y152647D01*
X118983Y152006D01*
X119956Y151603D01*
X121000Y151465D01*
X122044Y151603D01*
X123017Y152006D01*
X123853Y152647D01*
X124494Y153483D01*
X124861Y154368D01*
X162996Y192504D01*
X163557Y193235D01*
X163910Y194086D01*
X164030Y195000D01*
X164030Y195000D01*
Y301038D01*
X175719Y312726D01*
X176493Y313047D01*
X177319Y313681D01*
X177953Y314507D01*
X178351Y315468D01*
X178487Y316500D01*
X178351Y317532D01*
X177953Y318493D01*
X177319Y319319D01*
X176493Y319953D01*
X175532Y320351D01*
X174500Y320487D01*
D02*
G37*
G36*
X188453Y316000D02*
X185000D01*
Y312547D01*
X188453D01*
Y316000D01*
D02*
G37*
G36*
X184000D02*
X180547D01*
Y312547D01*
X184000D01*
Y316000D01*
D02*
G37*
G36*
X144500Y320487D02*
X143468Y320351D01*
X142507Y319953D01*
X141681Y319319D01*
X141047Y318493D01*
X140649Y317532D01*
X140513Y316500D01*
X140649Y315468D01*
X141047Y314507D01*
X141681Y313681D01*
X142507Y313047D01*
X143468Y312649D01*
X144500Y312513D01*
X145532Y312649D01*
X146493Y313047D01*
X147319Y313681D01*
X147953Y314507D01*
X148351Y315468D01*
X148487Y316500D01*
X148351Y317532D01*
X147953Y318493D01*
X147319Y319319D01*
X146493Y319953D01*
X145532Y320351D01*
X144500Y320487D01*
D02*
G37*
G36*
X134500D02*
X133468Y320351D01*
X132507Y319953D01*
X131681Y319319D01*
X131047Y318493D01*
X130649Y317532D01*
X130513Y316500D01*
X130649Y315468D01*
X131047Y314507D01*
X131681Y313681D01*
X132507Y313047D01*
X133468Y312649D01*
X134500Y312513D01*
X135532Y312649D01*
X136493Y313047D01*
X137319Y313681D01*
X137953Y314507D01*
X138351Y315468D01*
X138487Y316500D01*
X138351Y317532D01*
X137953Y318493D01*
X137319Y319319D01*
X136493Y319953D01*
X135532Y320351D01*
X134500Y320487D01*
D02*
G37*
G36*
X124500D02*
X123468Y320351D01*
X122507Y319953D01*
X121681Y319319D01*
X121047Y318493D01*
X120649Y317532D01*
X120513Y316500D01*
X120649Y315468D01*
X121047Y314507D01*
X121681Y313681D01*
X122507Y313047D01*
X123468Y312649D01*
X124500Y312513D01*
X125532Y312649D01*
X126493Y313047D01*
X127319Y313681D01*
X127953Y314507D01*
X128351Y315468D01*
X128487Y316500D01*
X128351Y317532D01*
X127953Y318493D01*
X127319Y319319D01*
X126493Y319953D01*
X125532Y320351D01*
X124500Y320487D01*
D02*
G37*
G36*
X114500D02*
X113468Y320351D01*
X112507Y319953D01*
X111681Y319319D01*
X111047Y318493D01*
X110649Y317532D01*
X110513Y316500D01*
X110649Y315468D01*
X111047Y314507D01*
X111681Y313681D01*
X112507Y313047D01*
X113468Y312649D01*
X114500Y312513D01*
X115532Y312649D01*
X116493Y313047D01*
X117319Y313681D01*
X117953Y314507D01*
X118351Y315468D01*
X118487Y316500D01*
X118351Y317532D01*
X117953Y318493D01*
X117319Y319319D01*
X116493Y319953D01*
X115532Y320351D01*
X114500Y320487D01*
D02*
G37*
G36*
X181000Y289534D02*
X179956Y289397D01*
X178983Y288994D01*
X178147Y288353D01*
X177506Y287517D01*
X177103Y286544D01*
X176965Y285500D01*
X177103Y284456D01*
X177506Y283483D01*
X178147Y282647D01*
X178983Y282006D01*
X179956Y281603D01*
X181000Y281466D01*
X182044Y281603D01*
X183017Y282006D01*
X183853Y282647D01*
X184494Y283483D01*
X184897Y284456D01*
X185035Y285500D01*
X184897Y286544D01*
X184494Y287517D01*
X183853Y288353D01*
X183017Y288994D01*
X182044Y289397D01*
X181000Y289534D01*
D02*
G37*
G36*
X121000D02*
X119956Y289397D01*
X118983Y288994D01*
X118147Y288353D01*
X117506Y287517D01*
X117103Y286544D01*
X116965Y285500D01*
X117103Y284456D01*
X117506Y283483D01*
X118147Y282647D01*
X118983Y282006D01*
X119956Y281603D01*
X121000Y281466D01*
X122044Y281603D01*
X123017Y282006D01*
X123853Y282647D01*
X124494Y283483D01*
X124897Y284456D01*
X125034Y285500D01*
X124897Y286544D01*
X124494Y287517D01*
X123853Y288353D01*
X123017Y288994D01*
X122044Y289397D01*
X121000Y289534D01*
D02*
G37*
G36*
X181000Y279535D02*
X179956Y279397D01*
X178983Y278994D01*
X178147Y278353D01*
X177506Y277517D01*
X177103Y276544D01*
X176965Y275500D01*
X177103Y274456D01*
X177506Y273483D01*
X178147Y272647D01*
X178983Y272006D01*
X179956Y271603D01*
X181000Y271465D01*
X182044Y271603D01*
X183017Y272006D01*
X183853Y272647D01*
X184494Y273483D01*
X184897Y274456D01*
X185035Y275500D01*
X184897Y276544D01*
X184494Y277517D01*
X183853Y278353D01*
X183017Y278994D01*
X182044Y279397D01*
X181000Y279535D01*
D02*
G37*
G36*
X121000D02*
X119956Y279397D01*
X118983Y278994D01*
X118147Y278353D01*
X117506Y277517D01*
X117103Y276544D01*
X116965Y275500D01*
X117103Y274456D01*
X117506Y273483D01*
X118147Y272647D01*
X118983Y272006D01*
X119956Y271603D01*
X121000Y271465D01*
X122044Y271603D01*
X123017Y272006D01*
X123853Y272647D01*
X124494Y273483D01*
X124897Y274456D01*
X125034Y275500D01*
X124897Y276544D01*
X124494Y277517D01*
X123853Y278353D01*
X123017Y278994D01*
X122044Y279397D01*
X121000Y279535D01*
D02*
G37*
G36*
X181000Y269534D02*
X179956Y269397D01*
X178983Y268994D01*
X178147Y268353D01*
X177506Y267517D01*
X177103Y266544D01*
X176965Y265500D01*
X177103Y264456D01*
X177506Y263483D01*
X178147Y262647D01*
X178983Y262006D01*
X179956Y261603D01*
X181000Y261466D01*
X182044Y261603D01*
X183017Y262006D01*
X183853Y262647D01*
X184494Y263483D01*
X184897Y264456D01*
X185035Y265500D01*
X184897Y266544D01*
X184494Y267517D01*
X183853Y268353D01*
X183017Y268994D01*
X182044Y269397D01*
X181000Y269534D01*
D02*
G37*
G36*
X121000D02*
X119956Y269397D01*
X118983Y268994D01*
X118147Y268353D01*
X117506Y267517D01*
X117103Y266544D01*
X116965Y265500D01*
X117103Y264456D01*
X117506Y263483D01*
X118147Y262647D01*
X118983Y262006D01*
X119956Y261603D01*
X121000Y261466D01*
X122044Y261603D01*
X123017Y262006D01*
X123853Y262647D01*
X124494Y263483D01*
X124897Y264456D01*
X125034Y265500D01*
X124897Y266544D01*
X124494Y267517D01*
X123853Y268353D01*
X123017Y268994D01*
X122044Y269397D01*
X121000Y269534D01*
D02*
G37*
G36*
X181000Y259535D02*
X179956Y259397D01*
X178983Y258994D01*
X178147Y258353D01*
X177506Y257517D01*
X177103Y256544D01*
X176965Y255500D01*
X177103Y254456D01*
X177506Y253483D01*
X178147Y252647D01*
X178983Y252006D01*
X179956Y251603D01*
X181000Y251466D01*
X182044Y251603D01*
X183017Y252006D01*
X183853Y252647D01*
X184494Y253483D01*
X184897Y254456D01*
X185035Y255500D01*
X184897Y256544D01*
X184494Y257517D01*
X183853Y258353D01*
X183017Y258994D01*
X182044Y259397D01*
X181000Y259535D01*
D02*
G37*
G36*
X121000D02*
X119956Y259397D01*
X118983Y258994D01*
X118147Y258353D01*
X117506Y257517D01*
X117103Y256544D01*
X116965Y255500D01*
X117103Y254456D01*
X117506Y253483D01*
X118147Y252647D01*
X118983Y252006D01*
X119956Y251603D01*
X121000Y251466D01*
X122044Y251603D01*
X123017Y252006D01*
X123853Y252647D01*
X124494Y253483D01*
X124897Y254456D01*
X125034Y255500D01*
X124897Y256544D01*
X124494Y257517D01*
X123853Y258353D01*
X123017Y258994D01*
X122044Y259397D01*
X121000Y259535D01*
D02*
G37*
G36*
X181000Y249535D02*
X179956Y249397D01*
X178983Y248994D01*
X178147Y248353D01*
X177506Y247517D01*
X177103Y246544D01*
X176965Y245500D01*
X177103Y244456D01*
X177506Y243483D01*
X178147Y242647D01*
X178983Y242006D01*
X179956Y241603D01*
X181000Y241465D01*
X182044Y241603D01*
X183017Y242006D01*
X183853Y242647D01*
X184494Y243483D01*
X184897Y244456D01*
X185035Y245500D01*
X184897Y246544D01*
X184494Y247517D01*
X183853Y248353D01*
X183017Y248994D01*
X182044Y249397D01*
X181000Y249535D01*
D02*
G37*
G36*
X121000D02*
X119956Y249397D01*
X118983Y248994D01*
X118147Y248353D01*
X117506Y247517D01*
X117103Y246544D01*
X116965Y245500D01*
X117103Y244456D01*
X117506Y243483D01*
X118147Y242647D01*
X118983Y242006D01*
X119956Y241603D01*
X121000Y241465D01*
X122044Y241603D01*
X123017Y242006D01*
X123853Y242647D01*
X124494Y243483D01*
X124897Y244456D01*
X125034Y245500D01*
X124897Y246544D01*
X124494Y247517D01*
X123853Y248353D01*
X123017Y248994D01*
X122044Y249397D01*
X121000Y249535D01*
D02*
G37*
G36*
X181000Y239534D02*
X179956Y239397D01*
X178983Y238994D01*
X178147Y238353D01*
X177506Y237517D01*
X177103Y236544D01*
X176965Y235500D01*
X177103Y234456D01*
X177506Y233483D01*
X178147Y232647D01*
X178983Y232006D01*
X179956Y231603D01*
X181000Y231466D01*
X182044Y231603D01*
X183017Y232006D01*
X183853Y232647D01*
X184494Y233483D01*
X184897Y234456D01*
X185035Y235500D01*
X184897Y236544D01*
X184494Y237517D01*
X183853Y238353D01*
X183017Y238994D01*
X182044Y239397D01*
X181000Y239534D01*
D02*
G37*
G36*
Y229535D02*
X179956Y229397D01*
X178983Y228994D01*
X178147Y228353D01*
X177506Y227517D01*
X177103Y226544D01*
X176965Y225500D01*
X177103Y224456D01*
X177506Y223483D01*
X178147Y222647D01*
X178983Y222006D01*
X179956Y221603D01*
X181000Y221465D01*
X182044Y221603D01*
X183017Y222006D01*
X183853Y222647D01*
X184494Y223483D01*
X184897Y224456D01*
X185035Y225500D01*
X184897Y226544D01*
X184494Y227517D01*
X183853Y228353D01*
X183017Y228994D01*
X182044Y229397D01*
X181000Y229535D01*
D02*
G37*
G36*
Y219534D02*
X179956Y219397D01*
X178983Y218994D01*
X178147Y218353D01*
X177506Y217517D01*
X177103Y216544D01*
X176965Y215500D01*
X177103Y214456D01*
X177506Y213483D01*
X178147Y212647D01*
X178983Y212006D01*
X179956Y211603D01*
X181000Y211466D01*
X182044Y211603D01*
X183017Y212006D01*
X183853Y212647D01*
X184494Y213483D01*
X184897Y214456D01*
X185035Y215500D01*
X184897Y216544D01*
X184494Y217517D01*
X183853Y218353D01*
X183017Y218994D01*
X182044Y219397D01*
X181000Y219534D01*
D02*
G37*
G36*
X121000D02*
X119956Y219397D01*
X118983Y218994D01*
X118147Y218353D01*
X117506Y217517D01*
X117103Y216544D01*
X116965Y215500D01*
X117103Y214456D01*
X117506Y213483D01*
X118147Y212647D01*
X118983Y212006D01*
X119956Y211603D01*
X121000Y211466D01*
X122044Y211603D01*
X123017Y212006D01*
X123853Y212647D01*
X124494Y213483D01*
X124897Y214456D01*
X125034Y215500D01*
X124897Y216544D01*
X124494Y217517D01*
X123853Y218353D01*
X123017Y218994D01*
X122044Y219397D01*
X121000Y219534D01*
D02*
G37*
G36*
X181000Y209535D02*
X179956Y209397D01*
X178983Y208994D01*
X178147Y208353D01*
X177506Y207517D01*
X177103Y206544D01*
X176965Y205500D01*
X177103Y204456D01*
X177506Y203483D01*
X178147Y202647D01*
X178983Y202006D01*
X179956Y201603D01*
X181000Y201466D01*
X182044Y201603D01*
X183017Y202006D01*
X183853Y202647D01*
X184494Y203483D01*
X184897Y204456D01*
X185035Y205500D01*
X184897Y206544D01*
X184494Y207517D01*
X183853Y208353D01*
X183017Y208994D01*
X182044Y209397D01*
X181000Y209535D01*
D02*
G37*
G36*
X121000D02*
X119956Y209397D01*
X118983Y208994D01*
X118147Y208353D01*
X117506Y207517D01*
X117103Y206544D01*
X116965Y205500D01*
X117103Y204456D01*
X117506Y203483D01*
X118147Y202647D01*
X118983Y202006D01*
X119956Y201603D01*
X121000Y201466D01*
X122044Y201603D01*
X123017Y202006D01*
X123853Y202647D01*
X124494Y203483D01*
X124897Y204456D01*
X125034Y205500D01*
X124897Y206544D01*
X124494Y207517D01*
X123853Y208353D01*
X123017Y208994D01*
X122044Y209397D01*
X121000Y209535D01*
D02*
G37*
G36*
X181000Y199534D02*
X179956Y199397D01*
X178983Y198994D01*
X178147Y198353D01*
X177506Y197517D01*
X177103Y196544D01*
X176965Y195500D01*
X177103Y194456D01*
X177506Y193483D01*
X178147Y192647D01*
X178983Y192006D01*
X179956Y191603D01*
X181000Y191465D01*
X182044Y191603D01*
X183017Y192006D01*
X183853Y192647D01*
X184494Y193483D01*
X184897Y194456D01*
X185035Y195500D01*
X184897Y196544D01*
X184494Y197517D01*
X183853Y198353D01*
X183017Y198994D01*
X182044Y199397D01*
X181000Y199534D01*
D02*
G37*
G36*
X121000D02*
X119956Y199397D01*
X118983Y198994D01*
X118147Y198353D01*
X117506Y197517D01*
X117103Y196544D01*
X116965Y195500D01*
X117103Y194456D01*
X117506Y193483D01*
X118147Y192647D01*
X118983Y192006D01*
X119956Y191603D01*
X121000Y191465D01*
X122044Y191603D01*
X123017Y192006D01*
X123853Y192647D01*
X124494Y193483D01*
X124897Y194456D01*
X125034Y195500D01*
X124897Y196544D01*
X124494Y197517D01*
X123853Y198353D01*
X123017Y198994D01*
X122044Y199397D01*
X121000Y199534D01*
D02*
G37*
G36*
X181000Y189534D02*
X179956Y189397D01*
X178983Y188994D01*
X178147Y188353D01*
X177506Y187517D01*
X177103Y186544D01*
X176965Y185500D01*
X177103Y184456D01*
X177506Y183483D01*
X178147Y182647D01*
X178983Y182006D01*
X179956Y181603D01*
X181000Y181465D01*
X182044Y181603D01*
X183017Y182006D01*
X183853Y182647D01*
X184494Y183483D01*
X184897Y184456D01*
X185035Y185500D01*
X184897Y186544D01*
X184494Y187517D01*
X183853Y188353D01*
X183017Y188994D01*
X182044Y189397D01*
X181000Y189534D01*
D02*
G37*
G36*
X121000D02*
X119956Y189397D01*
X118983Y188994D01*
X118147Y188353D01*
X117506Y187517D01*
X117103Y186544D01*
X116965Y185500D01*
X117103Y184456D01*
X117506Y183483D01*
X118147Y182647D01*
X118983Y182006D01*
X119956Y181603D01*
X121000Y181465D01*
X122044Y181603D01*
X123017Y182006D01*
X123853Y182647D01*
X124494Y183483D01*
X124897Y184456D01*
X125034Y185500D01*
X124897Y186544D01*
X124494Y187517D01*
X123853Y188353D01*
X123017Y188994D01*
X122044Y189397D01*
X121000Y189534D01*
D02*
G37*
G36*
X121500Y179469D02*
Y176000D01*
X124969D01*
X124897Y176544D01*
X124494Y177517D01*
X123853Y178353D01*
X123017Y178994D01*
X122044Y179397D01*
X121500Y179469D01*
D02*
G37*
G36*
X120500D02*
X119956Y179397D01*
X118983Y178994D01*
X118147Y178353D01*
X117506Y177517D01*
X117103Y176544D01*
X117031Y176000D01*
X120500D01*
Y179469D01*
D02*
G37*
G36*
X124969Y175000D02*
X121500D01*
Y171531D01*
X122044Y171603D01*
X123017Y172006D01*
X123853Y172647D01*
X124494Y173483D01*
X124897Y174456D01*
X124969Y175000D01*
D02*
G37*
G36*
X120500D02*
X117031D01*
X117103Y174456D01*
X117506Y173483D01*
X118147Y172647D01*
X118983Y172006D01*
X119956Y171603D01*
X120500Y171531D01*
Y175000D01*
D02*
G37*
G36*
X181000Y179534D02*
X179956Y179397D01*
X178983Y178994D01*
X178147Y178353D01*
X177506Y177517D01*
X177103Y176544D01*
X176965Y175500D01*
X177103Y174456D01*
X177506Y173483D01*
X178147Y172647D01*
X178983Y172006D01*
X179956Y171603D01*
X181000Y171466D01*
X182044Y171603D01*
X183017Y172006D01*
X183853Y172647D01*
X184494Y173483D01*
X184897Y174456D01*
X185035Y175500D01*
X184897Y176544D01*
X184494Y177517D01*
X183853Y178353D01*
X183017Y178994D01*
X182044Y179397D01*
X181000Y179534D01*
D02*
G37*
G36*
Y169535D02*
X179956Y169397D01*
X178983Y168994D01*
X178147Y168353D01*
X177506Y167517D01*
X177103Y166544D01*
X176965Y165500D01*
X177103Y164456D01*
X177506Y163483D01*
X178147Y162647D01*
X178983Y162006D01*
X179956Y161603D01*
X181000Y161466D01*
X182044Y161603D01*
X183017Y162006D01*
X183853Y162647D01*
X184494Y163483D01*
X184897Y164456D01*
X185035Y165500D01*
X184897Y166544D01*
X184494Y167517D01*
X183853Y168353D01*
X183017Y168994D01*
X182044Y169397D01*
X181000Y169535D01*
D02*
G37*
G36*
Y159535D02*
X179956Y159397D01*
X178983Y158994D01*
X178147Y158353D01*
X177506Y157517D01*
X177103Y156544D01*
X176965Y155500D01*
X177103Y154456D01*
X177506Y153483D01*
X178147Y152647D01*
X178983Y152006D01*
X179956Y151603D01*
X181000Y151465D01*
X182044Y151603D01*
X183017Y152006D01*
X183853Y152647D01*
X184494Y153483D01*
X184897Y154456D01*
X185035Y155500D01*
X184897Y156544D01*
X184494Y157517D01*
X183853Y158353D01*
X183017Y158994D01*
X182044Y159397D01*
X181000Y159535D01*
D02*
G37*
G36*
X185000Y149500D02*
X177000D01*
Y141500D01*
X185000D01*
Y149500D01*
D02*
G37*
G36*
X121000Y149534D02*
X119956Y149397D01*
X118983Y148994D01*
X118147Y148353D01*
X117506Y147517D01*
X117103Y146544D01*
X116965Y145500D01*
X117103Y144456D01*
X117506Y143483D01*
X118147Y142647D01*
X118983Y142006D01*
X119956Y141603D01*
X121000Y141465D01*
X122044Y141603D01*
X123017Y142006D01*
X123853Y142647D01*
X124494Y143483D01*
X124897Y144456D01*
X125034Y145500D01*
X124897Y146544D01*
X124494Y147517D01*
X123853Y148353D01*
X123017Y148994D01*
X122044Y149397D01*
X121000Y149534D01*
D02*
G37*
%LPD*%
D16*
X154500Y259000D02*
Y316500D01*
X121000Y225500D02*
X154500Y259000D01*
X160500Y302500D02*
X174500Y316500D01*
X160500Y195000D02*
Y302500D01*
X121000Y155500D02*
X160500Y195000D01*
D17*
X184500Y316500D02*
D03*
D18*
X174500D02*
D03*
X164500D02*
D03*
X154500D02*
D03*
X144500D02*
D03*
X134500D02*
D03*
X124500D02*
D03*
X114500D02*
D03*
D19*
X181000Y265500D02*
D03*
Y255500D02*
D03*
Y245500D02*
D03*
Y235500D02*
D03*
Y225500D02*
D03*
Y215500D02*
D03*
Y205500D02*
D03*
Y195500D02*
D03*
Y185500D02*
D03*
Y175500D02*
D03*
Y165500D02*
D03*
Y155500D02*
D03*
X121000Y145500D02*
D03*
X181000Y275500D02*
D03*
Y285500D02*
D03*
X121000Y155500D02*
D03*
Y165500D02*
D03*
Y175500D02*
D03*
Y185500D02*
D03*
Y195500D02*
D03*
Y205500D02*
D03*
Y215500D02*
D03*
Y225500D02*
D03*
Y235500D02*
D03*
Y265500D02*
D03*
Y245500D02*
D03*
Y255500D02*
D03*
Y275500D02*
D03*
Y285500D02*
D03*
D20*
X181000Y145500D02*
D03*
M02*
