G04*
G04 #@! TF.GenerationSoftware,Altium Limited,Altium Designer,19.1.2 (11)*
G04*
G04 Layer_Color=2752767*
%FSLAX25Y25*%
%MOIN*%
G70*
G01*
G75*
%ADD22C,0.00200*%
%ADD23C,0.00267*%
D22*
X183700Y315700D02*
Y317300D01*
X185300D01*
Y315700D01*
X183700D01*
X173700D02*
Y317300D01*
X175300D01*
Y315700D01*
X173700D01*
X163700D02*
Y317300D01*
X165300D01*
Y315700D01*
X163700D01*
X153700D02*
Y317300D01*
X155300D01*
Y315700D01*
X153700D01*
X143700D02*
Y317300D01*
X145300D01*
Y315700D01*
X143700D01*
X133700D02*
Y317300D01*
X135300D01*
Y315700D01*
X133700D01*
X123700D02*
Y317300D01*
X125300D01*
Y315700D01*
X123700D01*
X113700D02*
Y317300D01*
X115300D01*
Y315700D01*
X113700D01*
D23*
X181800Y265500D02*
G03*
X181800Y265500I-800J0D01*
G01*
Y255500D02*
G03*
X181800Y255500I-800J0D01*
G01*
Y245500D02*
G03*
X181800Y245500I-800J0D01*
G01*
Y235500D02*
G03*
X181800Y235500I-800J0D01*
G01*
Y225500D02*
G03*
X181800Y225500I-800J0D01*
G01*
Y215500D02*
G03*
X181800Y215500I-800J0D01*
G01*
Y205500D02*
G03*
X181800Y205500I-800J0D01*
G01*
Y195500D02*
G03*
X181800Y195500I-800J0D01*
G01*
Y185500D02*
G03*
X181800Y185500I-800J0D01*
G01*
Y175500D02*
G03*
X181800Y175500I-800J0D01*
G01*
Y165500D02*
G03*
X181800Y165500I-800J0D01*
G01*
Y155500D02*
G03*
X181800Y155500I-800J0D01*
G01*
Y145500D02*
G03*
X181800Y145500I-800J0D01*
G01*
X121800D02*
G03*
X121800Y145500I-800J0D01*
G01*
X181800Y275500D02*
G03*
X181800Y275500I-800J0D01*
G01*
Y285500D02*
G03*
X181800Y285500I-800J0D01*
G01*
X121800Y155500D02*
G03*
X121800Y155500I-800J0D01*
G01*
Y165500D02*
G03*
X121800Y165500I-800J0D01*
G01*
Y175500D02*
G03*
X121800Y175500I-800J0D01*
G01*
Y185500D02*
G03*
X121800Y185500I-800J0D01*
G01*
Y195500D02*
G03*
X121800Y195500I-800J0D01*
G01*
Y205500D02*
G03*
X121800Y205500I-800J0D01*
G01*
Y215500D02*
G03*
X121800Y215500I-800J0D01*
G01*
Y225500D02*
G03*
X121800Y225500I-800J0D01*
G01*
Y235500D02*
G03*
X121800Y235500I-800J0D01*
G01*
Y265500D02*
G03*
X121800Y265500I-800J0D01*
G01*
Y245500D02*
G03*
X121800Y245500I-800J0D01*
G01*
Y255500D02*
G03*
X121800Y255500I-800J0D01*
G01*
Y275500D02*
G03*
X121800Y275500I-800J0D01*
G01*
Y285500D02*
G03*
X121800Y285500I-800J0D01*
G01*
M02*
