G04*
G04 #@! TF.GenerationSoftware,Altium Limited,Altium Designer,19.1.2 (11)*
G04*
G04 Layer_Color=32896*
%FSLAX25Y25*%
%MOIN*%
G70*
G01*
G75*
%ADD10C,0.01000*%
%ADD21C,0.00787*%
D10*
X141806Y176000D02*
X135808D01*
Y178999D01*
X136808Y179999D01*
X138807D01*
X139807Y178999D01*
Y176000D01*
X137807Y181998D02*
X141806D01*
X139807D01*
X138807Y182998D01*
X137807Y183997D01*
Y184997D01*
X141806Y188996D02*
Y190995D01*
X140806Y191995D01*
X138807D01*
X137807Y190995D01*
Y188996D01*
X138807Y187996D01*
X140806D01*
X141806Y188996D01*
X136808Y197993D02*
X135808Y196993D01*
Y194994D01*
X136808Y193994D01*
X137807D01*
X138807Y194994D01*
Y196993D01*
X139807Y197993D01*
X140806D01*
X141806Y196993D01*
Y194994D01*
X140806Y193994D01*
X137807Y199992D02*
X140806D01*
X141806Y200992D01*
Y203991D01*
X142806D01*
X143805Y202991D01*
Y201992D01*
X141806Y203991D02*
X137807D01*
X135808Y205990D02*
X141806D01*
Y209989D01*
X137807Y212988D02*
Y214987D01*
X138807Y215987D01*
X141806D01*
Y212988D01*
X140806Y211988D01*
X139807Y212988D01*
Y215987D01*
X135808Y217986D02*
X141806D01*
Y220985D01*
X140806Y221985D01*
X139807D01*
X138807D01*
X137807Y220985D01*
Y217986D01*
X136808Y233981D02*
X135808Y232982D01*
Y230982D01*
X136808Y229982D01*
X140806D01*
X141806Y230982D01*
Y232982D01*
X140806Y233981D01*
X138807D01*
Y231982D01*
X137807Y235981D02*
X141806D01*
X139807D01*
X138807Y236980D01*
X137807Y237980D01*
Y238980D01*
X141806Y242978D02*
Y244978D01*
X140806Y245977D01*
X138807D01*
X137807Y244978D01*
Y242978D01*
X138807Y241979D01*
X140806D01*
X141806Y242978D01*
X137807Y247977D02*
X140806D01*
X141806Y248976D01*
Y251975D01*
X137807D01*
X135808Y253975D02*
X141806D01*
Y256974D01*
X140806Y257974D01*
X139807D01*
X138807D01*
X137807Y256974D01*
Y253975D01*
X147405Y176000D02*
X153403D01*
Y178999D01*
X152403Y179999D01*
X151404D01*
X150404Y178999D01*
Y176000D01*
Y178999D01*
X149404Y179999D01*
X148405D01*
X147405Y178999D01*
Y176000D01*
X149404Y181998D02*
X152403D01*
X153403Y182998D01*
Y185997D01*
X154403D01*
X155402Y184997D01*
Y183997D01*
X153403Y185997D02*
X149404D01*
Y187996D02*
Y188996D01*
X150404D01*
Y187996D01*
X149404D01*
X152403D02*
Y188996D01*
X153403D01*
Y187996D01*
X152403D01*
X165000Y176000D02*
X161001D01*
X159002Y177999D01*
X161001Y179999D01*
X165000D01*
X162001D01*
Y176000D01*
X165000Y181998D02*
X164000D01*
Y182998D01*
X165000D01*
Y181998D01*
X159002Y190995D02*
Y186996D01*
X165000D01*
Y190995D01*
X162001Y186996D02*
Y188996D01*
X161001Y192994D02*
Y196993D01*
X165000Y192994D01*
Y196993D01*
X161001Y198993D02*
Y202991D01*
X165000Y198993D01*
Y202991D01*
X161001Y205990D02*
Y207990D01*
X162001Y208989D01*
X165000D01*
Y205990D01*
X164000Y204991D01*
X163001Y205990D01*
Y208989D01*
X160002Y211988D02*
X161001D01*
Y210989D01*
Y212988D01*
Y211988D01*
X164000D01*
X165000Y212988D01*
X180502Y331500D02*
X184501D01*
X186500Y333499D01*
X184501Y335499D01*
X180502D01*
X181502Y341497D02*
X180502Y340497D01*
Y338498D01*
X181502Y337498D01*
X185500D01*
X186500Y338498D01*
Y340497D01*
X185500Y341497D01*
X181502Y347495D02*
X180502Y346495D01*
Y344496D01*
X181502Y343496D01*
X185500D01*
X186500Y344496D01*
Y346495D01*
X185500Y347495D01*
X186500Y351494D02*
X184501Y349494D01*
X182501D01*
X180502Y351494D01*
X186500Y354493D02*
Y356492D01*
Y355492D01*
X180502D01*
X181502Y354493D01*
X186500Y359491D02*
X184501Y361490D01*
X182501D01*
X180502Y359491D01*
X118100Y324900D02*
Y330898D01*
X115101D01*
X114101Y329898D01*
Y327899D01*
X115101Y326899D01*
X118100D01*
X112102Y324900D02*
X110103D01*
X111102D01*
Y330898D01*
X112102Y329898D01*
D21*
X109500Y311500D02*
Y321500D01*
Y311500D02*
X189500D01*
Y321500D01*
X109500D02*
X189500D01*
M02*
